<svg width="21" height="20" viewBox="0 0 21 20" fill="none" xmlns="http://www.w3.org/2000/svg">
<path d="M9.01172 13H11.0117V15H9.01172V13ZM9.01172 5H11.0117V11H9.01172V5ZM10.0017 0C4.48172 0 0.0117188 4.48 0.0117188 10C0.0117188 15.52 4.48172 20 10.0017 20C15.5317 20 20.0117 15.52 20.0117 10C20.0117 4.48 15.5317 0 10.0017 0ZM10.0117 18C5.59172 18 2.01172 14.42 2.01172 10C2.01172 5.58 5.59172 2 10.0117 2C14.4317 2 18.0117 5.58 18.0117 10C18.0117 14.42 14.4317 18 10.0117 18Z" fill="#ECAD48"/>
</svg>
