<svg width="25" height="24" viewBox="0 0 25 24" fill="none" xmlns="http://www.w3.org/2000/svg">
<g clip-path="url(#clip0_1671_1435)">
<path d="M12.0117 6.00001C15.8017 6.00001 19.1817 8.13001 20.8317 11.5C20.2417 12.72 19.4117 13.77 18.4217 14.62L19.8317 16.03C21.2217 14.8 22.3217 13.26 23.0117 11.5C21.2817 7.11001 17.0117 4.00001 12.0117 4.00001C10.7417 4.00001 9.52172 4.20001 8.37172 4.57001L10.0217 6.22001C10.6717 6.09001 11.3317 6.00001 12.0117 6.00001ZM10.9417 7.14001L13.0117 9.21001C13.5817 9.46001 14.0417 9.92001 14.2917 10.49L16.3617 12.56C16.4417 12.22 16.5017 11.86 16.5017 11.49C16.5117 9.01001 14.4917 7.00001 12.0117 7.00001C11.6417 7.00001 11.2917 7.05001 10.9417 7.14001ZM2.02172 3.87001L4.70172 6.55001C3.07172 7.83001 1.78172 9.53001 1.01172 11.5C2.74172 15.89 7.01172 19 12.0117 19C13.5317 19 14.9917 18.71 16.3317 18.18L19.7517 21.6L21.1617 20.19L3.43172 2.45001L2.02172 3.87001ZM9.52172 11.37L12.1317 13.98C12.0917 13.99 12.0517 14 12.0117 14C10.6317 14 9.51172 12.88 9.51172 11.5C9.51172 11.45 9.52172 11.42 9.52172 11.37ZM6.12172 7.97001L7.87172 9.72001C7.64172 10.27 7.51172 10.87 7.51172 11.5C7.51172 13.98 9.53172 16 12.0117 16C12.6417 16 13.2417 15.87 13.7817 15.64L14.7617 16.62C13.8817 16.86 12.9617 17 12.0117 17C8.22172 17 4.84172 14.87 3.19172 11.5C3.89172 10.07 4.91172 8.89001 6.12172 7.97001Z" fill="#0D0F11"/>
</g>
<defs>
<clipPath id="clip0_1671_1435">
<rect width="24" height="24" fill="white" transform="translate(0.0117188)"/>
</clipPath>
</defs>
</svg>
