<svg width="215" height="31" viewBox="0 0 215 31" fill="none" xmlns="http://www.w3.org/2000/svg">
<g clip-path="url(#clip0_1330_26302)">
<g filter="url(#filter0_d_1330_26302)">
<circle cx="15.5238" cy="15.803" r="12.1" stroke="white"/>
</g>
<g clip-path="url(#clip1_1330_26302)">
<path d="M12.6858 16.1942H14.0011V21.6094C14.0011 21.7164 14.0878 21.803 14.1947 21.803H16.425C16.5319 21.803 16.6185 21.7164 16.6185 21.6094V16.2197H18.1307C18.229 16.2197 18.3117 16.1459 18.323 16.0483L18.5526 14.0546C18.5589 13.9998 18.5416 13.9449 18.5049 13.9037C18.4681 13.8625 18.4156 13.8389 18.3604 13.8389H16.6186V12.5892C16.6186 12.2125 16.8214 12.0215 17.2216 12.0215C17.2786 12.0215 18.3604 12.0215 18.3604 12.0215C18.4673 12.0215 18.5539 11.9348 18.5539 11.8279V9.99796C18.5539 9.89103 18.4673 9.80441 18.3604 9.80441H16.7909C16.7798 9.80387 16.7553 9.80298 16.719 9.80298C16.4467 9.80298 15.5001 9.85644 14.7524 10.5443C13.9239 11.3066 14.0391 12.2193 14.0666 12.3775V13.8389H12.6857C12.5788 13.8389 12.4922 13.9255 12.4922 14.0324V16.0006C12.4922 16.1075 12.5788 16.1942 12.6858 16.1942Z" fill="white"/>
</g>
<g clip-path="url(#clip2_1330_26302)">
<path d="M64.2734 10.303H58.7734C57.2547 10.303 56.0234 11.5342 56.0234 13.053V18.553C56.0234 20.0718 57.2547 21.303 58.7734 21.303H64.2734C65.7922 21.303 67.0234 20.0718 67.0234 18.553V13.053C67.0234 11.5342 65.7922 10.303 64.2734 10.303Z" stroke="white" stroke-linecap="round" stroke-linejoin="round"/>
<path d="M63.7239 15.4565C63.7917 15.9143 63.7136 16.3817 63.5004 16.7925C63.2873 17.2032 62.9501 17.5363 62.5368 17.7443C62.1234 17.9524 61.655 18.0248 61.1981 17.9513C60.7413 17.8778 60.3192 17.6621 59.992 17.3349C59.6648 17.0077 59.4491 16.5856 59.3756 16.1287C59.3021 15.6719 59.3745 15.2035 59.5825 14.7901C59.7906 14.3768 60.1237 14.0396 60.5344 13.8265C60.9451 13.6133 61.4126 13.5351 61.8704 13.603C62.3373 13.6723 62.7695 13.8898 63.1033 14.2236C63.4371 14.5574 63.6546 14.9896 63.7239 15.4565Z" stroke="white" stroke-linecap="round" stroke-linejoin="round"/>
<path d="M64.5488 12.778H64.5543" stroke="white" stroke-linecap="round" stroke-linejoin="round"/>
</g>
<g filter="url(#filter1_d_1330_26302)">
<circle cx="61.5238" cy="15.803" r="12.1" stroke="white"/>
</g>
<g clip-path="url(#clip3_1330_26302)">
<path d="M105.542 21.8551C104.734 21.8551 103.943 21.5731 103.317 21.0609C102.495 20.3883 102.023 19.3954 102.023 18.3368C102.023 17.5657 102.269 16.8332 102.732 16.2188C103.18 15.6256 103.817 15.1812 104.526 14.9678C105.16 14.7769 105.828 15.0939 106.08 15.7053C106.097 15.7444 106.111 15.785 106.123 15.8251C106.222 16.153 106.187 16.4997 106.025 16.8013C105.863 17.1028 105.593 17.3233 105.265 17.4221C104.866 17.5424 104.587 17.9185 104.587 18.3368C104.587 18.6711 104.766 18.9855 105.055 19.1576C105.214 19.2528 105.397 19.2987 105.583 19.2909C106.096 19.269 106.497 18.8414 106.497 18.317V10.154C106.497 9.56924 106.885 9.05376 107.44 8.90071C107.501 8.8837 107.564 8.87152 107.626 8.86416C107.742 8.8502 107.86 8.85249 107.976 8.87025C108.418 8.93599 108.799 9.23371 108.97 9.64741C109.035 9.80351 109.068 9.96848 109.068 10.1378C109.068 10.8162 109.376 11.4454 109.914 11.8639C110.299 12.1634 110.76 12.3228 111.247 12.3246C111.77 12.3264 112.238 12.6383 112.439 13.1193C112.527 13.3299 112.556 13.5614 112.524 13.7888C112.433 14.4165 111.881 14.8881 111.237 14.8881C111.235 14.8881 111.233 14.8881 111.231 14.8881C110.466 14.8842 109.727 14.7 109.06 14.3505V18.3429C109.06 18.347 109.06 18.351 109.06 18.3553C109.054 19.3987 108.589 20.379 107.784 21.0462C107.154 21.5678 106.358 21.8551 105.542 21.8551ZM104.897 15.6741C104.847 15.6741 104.796 15.6815 104.746 15.6967C104.19 15.864 103.691 16.2124 103.34 16.6774C102.977 17.1586 102.785 17.7325 102.785 18.3368C102.785 19.166 103.155 19.9442 103.8 20.4716C104.29 20.8729 104.909 21.0937 105.542 21.0937C106.181 21.0937 106.805 20.8685 107.298 20.4599C107.931 19.9355 108.295 19.1657 108.299 18.3477C108.299 18.3449 108.299 18.3416 108.299 18.3378V12.9152L108.904 13.3584C109.585 13.8568 110.391 14.1223 111.235 14.1266H111.237C111.505 14.1266 111.733 13.9355 111.77 13.6809C111.783 13.588 111.772 13.4979 111.736 13.4129C111.655 13.2182 111.457 13.0868 111.244 13.086C110.587 13.0837 109.965 12.8688 109.447 12.4647C108.722 11.9007 108.307 11.0525 108.307 10.1378C108.307 10.069 108.294 10.002 108.267 9.93904C108.198 9.77077 108.043 9.6497 107.864 9.6233L107.86 9.6228C107.813 9.61543 107.764 9.61442 107.717 9.62026C107.692 9.6233 107.667 9.62813 107.643 9.63498C107.416 9.69716 107.258 9.91061 107.258 10.154V18.317C107.258 18.763 107.09 19.1876 106.785 19.5127C106.477 19.8414 106.062 20.0328 105.615 20.0515C105.28 20.0655 104.951 19.9828 104.664 19.8114C104.147 19.5028 103.825 18.9376 103.825 18.3368C103.825 17.5855 104.327 16.9096 105.046 16.6931C105.179 16.653 105.288 16.5634 105.354 16.4411C105.42 16.3188 105.434 16.1779 105.394 16.0449C105.389 16.0287 105.383 16.0119 105.376 15.9957C105.294 15.7962 105.103 15.6741 104.897 15.6741ZM109.06 18.3492V18.3525C109.06 18.3515 109.06 18.3503 109.06 18.3492Z" fill="white"/>
</g>
<g filter="url(#filter2_d_1330_26302)">
<path d="M119.624 15.803C119.624 22.4856 114.206 27.903 107.524 27.903C100.841 27.903 95.4238 22.4856 95.4238 15.803C95.4238 9.12036 100.841 3.703 107.524 3.703C114.206 3.703 119.624 9.12036 119.624 15.803Z" stroke="white"/>
</g>
<path fill-rule="evenodd" clip-rule="evenodd" d="M159.4 14.5635C159.426 13.7862 159.259 13.0147 158.914 12.3207C158.679 12.036 158.354 11.8438 157.995 11.7777C156.508 11.6406 155.016 11.5844 153.524 11.6094C152.037 11.5833 150.549 11.6377 149.068 11.7723C148.775 11.8264 148.504 11.9661 148.288 12.1741C147.808 12.6248 147.754 13.3959 147.701 14.0476C147.623 15.2192 147.623 16.3948 147.701 17.5664C147.716 17.9332 147.77 18.2972 147.861 18.6525C147.925 18.9267 148.056 19.1805 148.24 19.391C148.458 19.6101 148.735 19.7576 149.036 19.8145C150.188 19.9591 151.348 20.0189 152.509 19.9937C154.378 20.0209 156.018 19.9937 157.958 19.8417C158.266 19.7883 158.551 19.6405 158.775 19.4181C158.924 19.266 159.036 19.0799 159.101 18.8751C159.292 18.2792 159.386 17.6555 159.379 17.0288C159.4 16.7247 159.4 14.8893 159.4 14.5635ZM152.316 17.3546V13.9933L155.479 15.6821C154.592 16.1817 153.422 16.7464 152.316 17.3546Z" fill="white"/>
<g filter="url(#filter3_d_1330_26302)">
<path d="M165.624 15.803C165.624 22.4857 160.206 27.903 153.524 27.903C146.841 27.903 141.424 22.4857 141.424 15.803C141.424 9.12036 146.841 3.703 153.524 3.703C160.206 3.703 165.624 9.12036 165.624 15.803Z" stroke="white"/>
</g>
<g clip-path="url(#clip4_1330_26302)">
<path fill-rule="evenodd" clip-rule="evenodd" d="M194.427 8.45972H204.056C204.74 8.45972 205.294 9.0534 205.294 9.78577V20.1029C205.294 20.8353 204.74 21.429 204.056 21.429H198.702L196.358 23.2324V21.429H194.427C193.744 21.429 193.189 20.8352 193.189 20.1029V9.78582C193.189 9.0534 193.744 8.45972 194.427 8.45972ZM205.293 17.764V19.8421C205.042 20.1173 204.691 20.2883 204.303 20.2883H198.19C197.781 20.2883 197.406 20.0424 197.22 19.652C197.034 19.2615 197.069 18.7923 197.309 18.4376L201.23 12.65H198.808C198.042 12.65 197.422 11.985 197.422 11.1647C197.422 10.3444 198.042 9.67944 198.808 9.67944H204.569C204.841 9.67944 205.097 9.78869 205.293 9.97631V11.7581L201.485 17.3178H204.303C204.691 17.3178 205.042 17.4888 205.293 17.764Z" fill="white"/>
</g>
<g filter="url(#filter4_d_1330_26302)">
<path d="M211.624 15.803C211.624 22.4856 206.206 27.903 199.524 27.903C192.841 27.903 187.424 22.4856 187.424 15.803C187.424 9.12036 192.841 3.703 199.524 3.703C206.206 3.703 211.624 9.12036 211.624 15.803Z" stroke="white"/>
</g>
</g>
<defs>
<filter id="filter0_d_1330_26302" x="-7.51095" y="-7.23178" width="46.0688" height="46.0696" filterUnits="userSpaceOnUse" color-interpolation-filters="sRGB">
<feFlood flood-opacity="0" result="BackgroundImageFix"/>
<feColorMatrix in="SourceAlpha" type="matrix" values="0 0 0 0 0 0 0 0 0 0 0 0 0 0 0 0 0 0 127 0" result="hardAlpha"/>
<feOffset/>
<feGaussianBlur stdDeviation="5.21739"/>
<feColorMatrix type="matrix" values="0 0 0 0 0.629167 0 0 0 0 0.629167 0 0 0 0 0.629167 0 0 0 0.15 0"/>
<feBlend mode="normal" in2="BackgroundImageFix" result="effect1_dropShadow_1330_26302"/>
<feBlend mode="normal" in="SourceGraphic" in2="effect1_dropShadow_1330_26302" result="shape"/>
</filter>
<filter id="filter1_d_1330_26302" x="38.489" y="-7.23178" width="46.0688" height="46.0696" filterUnits="userSpaceOnUse" color-interpolation-filters="sRGB">
<feFlood flood-opacity="0" result="BackgroundImageFix"/>
<feColorMatrix in="SourceAlpha" type="matrix" values="0 0 0 0 0 0 0 0 0 0 0 0 0 0 0 0 0 0 127 0" result="hardAlpha"/>
<feOffset/>
<feGaussianBlur stdDeviation="5.21739"/>
<feColorMatrix type="matrix" values="0 0 0 0 0.629167 0 0 0 0 0.629167 0 0 0 0 0.629167 0 0 0 0.15 0"/>
<feBlend mode="normal" in2="BackgroundImageFix" result="effect1_dropShadow_1330_26302"/>
<feBlend mode="normal" in="SourceGraphic" in2="effect1_dropShadow_1330_26302" result="shape"/>
</filter>
<filter id="filter2_d_1330_26302" x="84.489" y="-7.23178" width="46.0688" height="46.0696" filterUnits="userSpaceOnUse" color-interpolation-filters="sRGB">
<feFlood flood-opacity="0" result="BackgroundImageFix"/>
<feColorMatrix in="SourceAlpha" type="matrix" values="0 0 0 0 0 0 0 0 0 0 0 0 0 0 0 0 0 0 127 0" result="hardAlpha"/>
<feOffset/>
<feGaussianBlur stdDeviation="5.21739"/>
<feColorMatrix type="matrix" values="0 0 0 0 0.629167 0 0 0 0 0.629167 0 0 0 0 0.629167 0 0 0 0.15 0"/>
<feBlend mode="normal" in2="BackgroundImageFix" result="effect1_dropShadow_1330_26302"/>
<feBlend mode="normal" in="SourceGraphic" in2="effect1_dropShadow_1330_26302" result="shape"/>
</filter>
<filter id="filter3_d_1330_26302" x="130.489" y="-7.23178" width="46.0688" height="46.0696" filterUnits="userSpaceOnUse" color-interpolation-filters="sRGB">
<feFlood flood-opacity="0" result="BackgroundImageFix"/>
<feColorMatrix in="SourceAlpha" type="matrix" values="0 0 0 0 0 0 0 0 0 0 0 0 0 0 0 0 0 0 127 0" result="hardAlpha"/>
<feOffset/>
<feGaussianBlur stdDeviation="5.21739"/>
<feColorMatrix type="matrix" values="0 0 0 0 0.629167 0 0 0 0 0.629167 0 0 0 0 0.629167 0 0 0 0.15 0"/>
<feBlend mode="normal" in2="BackgroundImageFix" result="effect1_dropShadow_1330_26302"/>
<feBlend mode="normal" in="SourceGraphic" in2="effect1_dropShadow_1330_26302" result="shape"/>
</filter>
<filter id="filter4_d_1330_26302" x="176.489" y="-7.23178" width="46.0688" height="46.0696" filterUnits="userSpaceOnUse" color-interpolation-filters="sRGB">
<feFlood flood-opacity="0" result="BackgroundImageFix"/>
<feColorMatrix in="SourceAlpha" type="matrix" values="0 0 0 0 0 0 0 0 0 0 0 0 0 0 0 0 0 0 127 0" result="hardAlpha"/>
<feOffset/>
<feGaussianBlur stdDeviation="5.21739"/>
<feColorMatrix type="matrix" values="0 0 0 0 0.629167 0 0 0 0 0.629167 0 0 0 0 0.629167 0 0 0 0.15 0"/>
<feBlend mode="normal" in2="BackgroundImageFix" result="effect1_dropShadow_1330_26302"/>
<feBlend mode="normal" in="SourceGraphic" in2="effect1_dropShadow_1330_26302" result="shape"/>
</filter>
<clipPath id="clip0_1330_26302">
<rect width="214" height="30" fill="white" transform="translate(0.523438 0.802979)"/>
</clipPath>
<clipPath id="clip1_1330_26302">
<rect width="12" height="12" fill="white" transform="translate(9.52344 9.80298)"/>
</clipPath>
<clipPath id="clip2_1330_26302">
<rect width="13.2" height="13.2" fill="white" transform="translate(54.9238 9.203)"/>
</clipPath>
<clipPath id="clip3_1330_26302">
<rect width="13.2" height="13.2" fill="white" transform="translate(100.924 9.203)"/>
</clipPath>
<clipPath id="clip4_1330_26302">
<rect width="14" height="15" fill="white" transform="translate(192.023 8.8551)"/>
</clipPath>
</defs>
</svg>
