<svg width="13" height="13" viewBox="0 0 13 13" fill="none" xmlns="http://www.w3.org/2000/svg">
<path d="M2.88344 2.13631C2.92344 2.72965 3.02344 3.30965 3.18344 3.86298L2.38344 4.66298C2.1101 3.86298 1.93677 3.01631 1.87677 2.13631H2.88344ZM9.45677 10.1496C10.0234 10.3096 10.6034 10.4096 11.1901 10.4496V11.443C10.3101 11.383 9.46344 11.2096 8.65677 10.943L9.45677 10.1496ZM3.52344 0.802979H1.1901C0.823438 0.802979 0.523438 1.10298 0.523438 1.46965C0.523438 7.72965 5.59677 12.803 11.8568 12.803C12.2234 12.803 12.5234 12.503 12.5234 12.1363V9.80965C12.5234 9.44298 12.2234 9.14298 11.8568 9.14298C11.0301 9.14298 10.2234 9.00965 9.47677 8.76298C9.4101 8.73631 9.33677 8.72965 9.27011 8.72965C9.09677 8.72965 8.9301 8.79631 8.79677 8.92298L7.3301 10.3896C5.44344 9.42298 3.89677 7.88298 2.93677 5.99631L4.40344 4.52965C4.5901 4.34298 4.64344 4.08298 4.5701 3.84965C4.32344 3.10298 4.1901 2.30298 4.1901 1.46965C4.1901 1.10298 3.8901 0.802979 3.52344 0.802979Z" fill="white"/>
</svg>
